<svg xmlns="http://www.w3.org/2000/svg" viewBox="0 0 74 78"><defs><style>.cls-1{fill:#db9500;}</style></defs><title>calendar2</title><g id="Layer_2" data-name="Layer 2"><g id="Layer_1-2" data-name="Layer 1"><g id="Layer_2-2" data-name="Layer 2"><g id="Layer_1-2-2" data-name="Layer 1-2"><path class="cls-1" d="M46,9H18a12.31,12.31,0,0,0,.2,2H46.1A12.75,12.75,0,0,1,46,9Z"/><path class="cls-1" d="M19,2c1.2,0,2.4,2,2.9,5h2c-.5-4.1-2.4-7-4.9-7-2.9,0-5,3.9-5,9a12.75,12.75,0,0,0,.1,2c.5,4.1,2.4,7,4.9,7V16c-1.2,0-2.4-2-2.9-5A12.75,12.75,0,0,1,16,9C16,5,17.6,2,19,2Z"/><path class="cls-1" d="M53,2c1.2,0,2.4,2,2.9,5h2c-.5-4.1-2.4-7-4.9-7-2.9,0-5,3.9-5,9a12.75,12.75,0,0,0,.1,2c.5,4.1,2.4,7,4.9,7V16c-1.2,0-2.4-2-2.9-5A12.75,12.75,0,0,1,50,9C50,5,51.6,2,53,2Z"/><circle class="cls-1" cx="24" cy="38" r="3"/><circle class="cls-1" cx="46" cy="38" r="3"/><circle class="cls-1" cx="57" cy="38" r="3"/><circle class="cls-1" cx="35" cy="38" r="3"/><circle class="cls-1" cx="13" cy="49" r="3"/><circle class="cls-1" cx="24" cy="49" r="3"/><circle class="cls-1" cx="35" cy="49" r="3"/><circle class="cls-1" cx="13" cy="60" r="3"/><circle class="cls-1" cx="24" cy="60" r="3"/><circle class="cls-1" cx="35" cy="60" r="3"/><path class="cls-1" d="M4,74H43.5a13.73,13.73,0,0,1-1.3-2H4a2,2,0,0,1-2-2V26H68V46.3a13.73,13.73,0,0,1,2,1.3V13a4,4,0,0,0-4-4H52a12.31,12.31,0,0,0,.2,2H66a2,2,0,0,1,2,2V24H2V13a2,2,0,0,1,2-2h8.1A12.75,12.75,0,0,1,12,9H4a4,4,0,0,0-4,4V70A4,4,0,0,0,4,74Z"/><path class="cls-1" d="M68,51a14.76,14.76,0,0,0-9-3A15,15,0,0,0,44,63a14.76,14.76,0,0,0,3,9,11.23,11.23,0,0,0,1.8,2A14.8,14.8,0,0,0,59,78,15,15,0,0,0,70,52.8C69.4,52.2,68.7,51.6,68,51Zm2,18.9A11.51,11.51,0,0,1,65.9,74a12.9,12.9,0,0,1-13.8,0,15.67,15.67,0,0,1-2.5-2A13,13,0,0,1,68,53.6a12.21,12.21,0,0,1,2,2.5A12.9,12.9,0,0,1,70,69.9Z"/><polygon class="cls-1" points="57 66.4 52.2 61.6 50.8 63 57 69.2 67.2 58.9 65.8 57.5 57 66.4"/></g></g></g></g></svg>