<svg xmlns="http://www.w3.org/2000/svg" viewBox="0 0 22.86 19"><defs><style>.cls-1{fill:#db9500;}.cls-2{fill:#3a3a3a;}</style></defs><title>dolls</title><g id="Layer_2" data-name="Layer 2"><g id="Layer_1-2" data-name="Layer 1"><path class="cls-1" d="M11.93,5.88V5h-1v.93A2,2,0,0,0,9.29,7.81c0,2.15,3.39,1.83,3.39,3.34a1.08,1.08,0,0,1-1.21,1,2.76,2.76,0,0,1-1.79-.75l-.56.74a3.22,3.22,0,0,0,1.8.88V14h1v-.94a2,2,0,0,0,1.74-1.94c0-2.27-3.39-1.88-3.39-3.33a1.15,1.15,0,0,1,1.27-1,2.47,2.47,0,0,1,1.54.61l.45-.81A2.77,2.77,0,0,0,11.93,5.88Z"/><path class="cls-2" d="M2.51,12.76A9.5,9.5,0,0,1,18.29,2.93a.5.5,0,1,1-.72.69,8.5,8.5,0,0,0-14.16,8.7l.78-2.14.94.34L3.76,14.28,0,12.91.34,12ZM20.36,6.24A9.5,9.5,0,0,1,4.57,16.07a.5.5,0,0,1,.72-.69,8.5,8.5,0,0,0,14.16-8.7l-.78,2.14-.94-.34L19.1,4.72l3.76,1.37L22.52,7Z"/></g></g></svg>