<svg xmlns="http://www.w3.org/2000/svg" viewBox="0 0 85.98 56.02"><defs><style>.cls-1{fill:none;stroke:#db9500;stroke-miterlimit:10;stroke-width:2px;}</style></defs><title>hat</title><g id="Layer_2" data-name="Layer 2"><g id="Layer_1-2" data-name="Layer 1"><path d="M42.77,0l-.16.06-42,17a1,1,0,0,0,0,1.84L5,20.71V40a1.06,1.06,0,0,0,1,1,1.06,1.06,0,0,0,1-1V21.49l8,3.25V47c0,1.56,1,2.88,2.53,3.94a21.1,21.1,0,0,0,6.06,2.69A71.2,71.2,0,0,0,43,56a71.2,71.2,0,0,0,19.41-2.37A21.1,21.1,0,0,0,68.46,51C70,49.9,71,48.58,71,47V24.74l14.38-5.81a1,1,0,0,0,0-1.84l-42-17A1,1,0,0,0,42.77,0ZM43,2.08,82.33,18,43,33.93,3.64,18ZM17,25.55,42.61,35.93a1,1,0,0,0,.75,0L69,25.55V47c0,.66-.47,1.45-1.69,2.31a19.7,19.7,0,0,1-5.5,2.41A69.44,69.44,0,0,1,43,54a69.44,69.44,0,0,1-18.81-2.28,19.7,19.7,0,0,1-5.5-2.41C17.45,48.47,17,47.67,17,47Z"/><path class="cls-1" d="M50.23,20.5s.19-9.2-7.05-9.2-7.43,9.2-7.43,9.2-.4,2,7.24,2S50.23,20.5,50.23,20.5Z"/></g></g></svg>