<svg xmlns="http://www.w3.org/2000/svg" viewBox="0 0 85.99 56.02"><defs><style>.cls-1{fill:#db9500;}.cls-2{fill:none;stroke:#db9500;stroke-miterlimit:10;stroke-width:2px;}</style></defs><title>hat2</title><g id="Layer_2" data-name="Layer 2"><g id="Layer_1-2" data-name="Layer 1"><g id="Layer_2-2" data-name="Layer 2"><g id="Layer_1-2-2" data-name="Layer 1-2"><path class="cls-1" d="M42.77,0l-.16.06-42,17a1,1,0,0,0,0,1.84L5,20.72V40a1.06,1.06,0,0,0,1,1,1.06,1.06,0,0,0,1-1V21.5l8,3.25V47c0,1.56,1,2.88,2.53,3.94a21.1,21.1,0,0,0,6.06,2.69A71.2,71.2,0,0,0,43,56a71.2,71.2,0,0,0,19.41-2.37,21.1,21.1,0,0,0,6-2.63C70,49.91,71,48.59,71,47V24.75l14.38-5.81a1,1,0,0,0,0-1.84l-42-17A1,1,0,0,0,42.77,0ZM43,2.09,82.33,18,43,33.94,3.64,18ZM17,25.56,42.61,35.94a1,1,0,0,0,.75,0L69,25.56V47c0,.66-.47,1.45-1.69,2.31a19.7,19.7,0,0,1-5.5,2.41A69.44,69.44,0,0,1,43,54a69.44,69.44,0,0,1-18.81-2.28,19.7,19.7,0,0,1-5.5-2.41C17.45,48.48,17,47.68,17,47Z"/><path class="cls-2" d="M50.23,20.51s.19-9.2-7-9.2-7.43,9.2-7.43,9.2-.4,2,7.24,2S50.23,20.51,50.23,20.51Z"/></g></g></g></g></svg>