<svg xmlns="http://www.w3.org/2000/svg" viewBox="0 0 56.43 47.37"><defs><style>.cls-1{fill:#db9500;stroke:#db9500;stroke-miterlimit:10;stroke-width:0.75px;}</style></defs><title>laptop</title><g id="Layer_2" data-name="Layer 2"><g id="Layer_1-2" data-name="Layer 1"><g id="Layer_2-2" data-name="Layer 2"><g id="Layer_1-2-2" data-name="Layer 1-2"><g id="Layer_2-2-2" data-name="Layer 2-2"><g id="Layer_1-2-2-2" data-name="Layer 1-2-2"><path class="cls-1" d="M3.62.38A3.24,3.24,0,0,0,.38,3.62h0V36a3.24,3.24,0,0,0,3.24,3.24H23V45.7H20.44a.65.65,0,0,0,0,1.29H36a.65.65,0,1,0,.18-1.29H33.38V39.22H52.81A3.24,3.24,0,0,0,56.06,36h0V3.62A3.24,3.24,0,0,0,52.81.38H3.62Zm0,1.29h49.2a1.92,1.92,0,0,1,1.94,1.9h0V30.16H1.67V3.62a1.92,1.92,0,0,1,1.84-2h.05Zm-2,29.78H54.76V36a1.92,1.92,0,0,1-1.88,1.9H3.62A1.92,1.92,0,0,1,1.68,36h0Zm26.6,1.93a1.29,1.29,0,1,0,1.29,1.29,1.29,1.29,0,0,0-1.29-1.29Zm-3.84,5.84h7.77v6.47H24.38Z"/><polygon class="cls-1" points="26.27 18.96 21.48 14.16 20.07 15.56 26.27 21.77 36.48 11.46 35.08 10.06 26.27 18.96"/></g></g></g></g></g></g></svg>