<svg xmlns="http://www.w3.org/2000/svg" viewBox="0 0 56.68 47.62"><defs><style>.cls-1{fill:#3a3a3a;stroke:#3a3a3a;stroke-miterlimit:10;}.cls-2{fill:#db9500;}</style></defs><title>laptop</title><g id="Layer_2" data-name="Layer 2"><g id="Layer_1-2" data-name="Layer 1"><g id="Layer_2-2" data-name="Layer 2"><g id="Layer_1-2-2" data-name="Layer 1-2"><path class="cls-1" d="M3.74.5A3.24,3.24,0,0,0,.5,3.74h0V36.11a3.24,3.24,0,0,0,3.24,3.24H23.16v6.47H20.57a.65.65,0,0,0,0,1.29H36.11a.65.65,0,1,0,.16-1.29H33.5V39.34H52.94a3.24,3.24,0,0,0,3.24-3.24h0V3.74A3.24,3.24,0,0,0,52.94.5H3.74Zm0,1.29h49.2a1.92,1.92,0,0,1,1.94,1.9s0,0,0,0V30.28H1.79V3.74a1.92,1.92,0,0,1,1.89-2Zm-2,29.78H54.88V36.1A1.92,1.92,0,0,1,53,38H3.74a1.92,1.92,0,0,1-1.94-1.9s0,0,0,0ZM28.34,33.5a1.29,1.29,0,1,0,1.29,1.29,1.29,1.29,0,0,0-1.29-1.29ZM24.5,39.34h7.77v6.47H24.5Z"/><polygon class="cls-2" points="26.4 19.09 21.6 14.29 20.2 15.69 26.4 21.89 36.6 11.59 35.2 10.19 26.4 19.09"/></g></g></g></g></svg>