<svg xmlns="http://www.w3.org/2000/svg" viewBox="0 0 55.68 46.61"><defs><style>.cls-1{fill:#db9500;}</style></defs><title>laptop</title><g id="Layer_2" data-name="Layer 2"><g id="Layer_1-2" data-name="Layer 1"><path d="M3.24,0A3.24,3.24,0,0,0,0,3.24V35.61a3.24,3.24,0,0,0,3.24,3.24H22.66v6.47H20.07a.65.65,0,0,0,0,1.29H35.61a.65.65,0,1,0,0-1.29H33V38.84H52.44a3.24,3.24,0,0,0,3.24-3.24V3.24A3.24,3.24,0,0,0,52.44,0Zm0,1.29h49.2a1.92,1.92,0,0,1,1.94,1.94V29.78H1.29V3.24A1.92,1.92,0,0,1,3.24,1.29ZM1.29,31.07H54.38v4.53a1.92,1.92,0,0,1-1.94,1.94H3.24a1.92,1.92,0,0,1-1.94-1.94ZM27.84,33a1.29,1.29,0,1,0,1.29,1.29A1.29,1.29,0,0,0,27.84,33ZM24,38.84h7.77v6.47H24Z"/><polygon class="cls-1" points="25.9 18.59 21.1 13.79 19.7 15.19 25.9 21.39 36.1 11.09 34.7 9.69 25.9 18.59"/></g></g></svg>