<svg xmlns="http://www.w3.org/2000/svg" viewBox="0 0 74.65 87"><defs><style>.cls-1{fill:#3a3a3a;stroke:#3a3a3a;stroke-width:2px;}.cls-1,.cls-2{stroke-miterlimit:10;}.cls-2{fill:#db9500;stroke:#db9500;}</style></defs><title>lock</title><g id="Layer_2" data-name="Layer 2"><g id="Layer_1-2" data-name="Layer 1"><path class="cls-1" d="M68.05,36.9H65.9V22a21,21,0,0,0-42.09,0V36.9H21.67a5.6,5.6,0,0,0-5.59,5.59v3a15.95,15.95,0,0,0,0,31.85v3A5.6,5.6,0,0,0,21.67,86H68.05a5.6,5.6,0,0,0,5.6-5.6V42.5A5.6,5.6,0,0,0,68.05,36.9Zm-5.24-.48H26.91V20c0-8.55,8.06-15.51,18-15.51s18,7,18,15.51V36.42Zm-60.06,25A14.19,14.19,0,1,1,16.95,75.64,14.21,14.21,0,0,1,2.76,61.45Zm69.14,19a3.84,3.84,0,0,1-3.84,3.84H21.67a3.85,3.85,0,0,1-3.84-3.84v-3a15.95,15.95,0,0,0,0-31.85v-3a3.85,3.85,0,0,1,3.84-3.84H68.06A3.84,3.84,0,0,1,71.9,42.5V80.4Z"/><path class="cls-1" d="M44.86,53.5a5.21,5.21,0,0,0-5.2,5.2v5.5a5.2,5.2,0,1,0,10.41,0V58.7A5.21,5.21,0,0,0,44.86,53.5Zm3.45,10.7a3.45,3.45,0,0,1-6.9,0V58.7a3.45,3.45,0,0,1,6.9,0Z"/><path class="cls-2" d="M23.45,56.83a1.1,1.1,0,0,0-1.55,0L15,63.75l-3-3a1.1,1.1,0,0,0-1.55,1.55l3.76,3.76a1.1,1.1,0,0,0,1.55,0l7.69-7.7A1.1,1.1,0,0,0,23.45,56.83Z"/></g></g></svg>