<svg xmlns="http://www.w3.org/2000/svg" viewBox="0 0 73.63 86.05"><defs><style>.cls-1{fill:#db9500;stroke:#db9500;stroke-miterlimit:10;}</style></defs><title>lock2</title><g id="Layer_2" data-name="Layer 2"><g id="Layer_1-2" data-name="Layer 1"><g id="Layer_2-2" data-name="Layer 2"><g id="Layer_1-2-2" data-name="Layer 1-2"><path class="cls-1" d="M67.53,36.45H65.38V21.55a21,21,0,1,0-42.09,0v14.9H21.15A5.6,5.6,0,0,0,15.56,42v3a15.95,15.95,0,0,0,0,31.85v3a5.6,5.6,0,0,0,5.54,5.66H67.53a5.6,5.6,0,0,0,5.6-5.6V42A5.6,5.6,0,0,0,67.53,36.45ZM63.48,36H25.31V19.38c0-8.55,9.13-16.59,19-16.59s19.17,8.36,19.17,16.91ZM2.24,61A14.19,14.19,0,1,1,16.43,75.18,14.19,14.19,0,0,1,2.24,61ZM71.38,80a3.84,3.84,0,0,1-3.84,3.84H21.15A3.85,3.85,0,0,1,17.31,80V77a15.95,15.95,0,0,0,0-31.85v-3a3.85,3.85,0,0,1,3.84-3.84H67.54A3.84,3.84,0,0,1,71.38,42V80Z"/><path class="cls-1" d="M44.34,53a5.21,5.21,0,0,0-5.2,5.2v5.5a5.2,5.2,0,1,0,10.41,0v-5.5A5.21,5.21,0,0,0,44.34,53Zm3.45,10.7a3.45,3.45,0,0,1-6.9,0v-5.5a3.45,3.45,0,0,1,6.9,0h0Z"/><path class="cls-1" d="M22.93,56.38a1.1,1.1,0,0,0-1.55,0l-6.9,6.92-3-3a1.1,1.1,0,0,0-1.55,1.55l3.76,3.76a1.1,1.1,0,0,0,1.55,0l7.69-7.7A1.1,1.1,0,0,0,22.93,56.38Z"/></g></g></g></g></svg>