<svg xmlns="http://www.w3.org/2000/svg" viewBox="0 0 72.65 85"><defs><style>.cls-1{fill:#3a3a3a;}.cls-2{fill:#db9500;}</style></defs><title>lock</title><g id="Layer_2" data-name="Layer 2"><g id="Layer_1-2" data-name="Layer 1"><path class="cls-1" d="M67.05,35.9H64.9V21a21,21,0,0,0-42.09,0V35.9H20.67a5.6,5.6,0,0,0-5.59,5.59v3a15.95,15.95,0,0,0,0,31.85v3A5.6,5.6,0,0,0,20.67,85H67.05a5.6,5.6,0,0,0,5.6-5.6V41.5A5.6,5.6,0,0,0,67.05,35.9ZM24.57,21a19.29,19.29,0,0,1,38.58,0V35.9H59.64V21a15.78,15.78,0,1,0-31.56,0V35.9H24.57ZM57.88,35.9H29.83V21a14,14,0,0,1,28.06,0V35.9ZM1.76,60.45A14.19,14.19,0,1,1,15.95,74.64,14.21,14.21,0,0,1,1.76,60.45Zm69.14,19a3.84,3.84,0,0,1-3.84,3.84H20.67a3.85,3.85,0,0,1-3.84-3.84v-3a15.95,15.95,0,0,0,0-31.85v-3a3.85,3.85,0,0,1,3.84-3.84H67.06A3.84,3.84,0,0,1,70.9,41.5V79.4Z"/><path class="cls-1" d="M43.86,52.5a5.21,5.21,0,0,0-5.2,5.2v5.5a5.2,5.2,0,1,0,10.41,0V57.7A5.21,5.21,0,0,0,43.86,52.5Zm3.45,10.7a3.45,3.45,0,0,1-6.9,0V57.7a3.45,3.45,0,0,1,6.9,0Z"/><path class="cls-2" d="M22.45,55.83a1.1,1.1,0,0,0-1.55,0L14,62.75l-3-3a1.1,1.1,0,1,0-1.55,1.55l3.76,3.76a1.1,1.1,0,0,0,1.55,0l7.69-7.7A1.1,1.1,0,0,0,22.45,55.83Z"/></g></g></svg>