<svg xmlns="http://www.w3.org/2000/svg" viewBox="0 0 62.49 62.62"><defs><style>.cls-1{fill:#db9500;}</style></defs><title>rocket2</title><g id="Layer_2" data-name="Layer 2"><g id="Layer_1-2" data-name="Layer 1"><g id="Layer_2-2" data-name="Layer 2"><g id="Layer_1-2-2" data-name="Layer 1-2"><path class="cls-1" d="M1.66,32.49l12.09,5.3a11.1,11.1,0,0,0,3,8,11.22,11.22,0,0,0,8.06,3L30.16,61a2.77,2.77,0,0,0,2,1.61,2.81,2.81,0,0,0,.51,0,2.77,2.77,0,0,0,2-.81l11-11a8.54,8.54,0,0,0,.67-11.32,62.73,62.73,0,0,0,5-4.5C63.69,22.65,62.48,1.87,62.43,1L62.37.12,61.49.06c-.88-.06-21.66-1.27-34,11.05a61.28,61.28,0,0,0-4.51,5,8.55,8.55,0,0,0-11.15.8L.81,28a2.77,2.77,0,0,0,.85,4.5ZM46.2,44.76a6.51,6.51,0,0,1-1.92,4.63l-11,11a.76.76,0,0,1-.69.21.77.77,0,0,1-.56-.45L26.94,48.66c5.34-.55,11.66-3.32,17.85-8A6.5,6.5,0,0,1,46.2,44.76ZM28.92,12.53C38.58,2.87,54.31,2,59.58,2h.88c.08,4.11-.23,21.27-10.5,31.54C38.23,45.3,24,50.13,18.16,44.33,15.44,41.61,15,36.86,16.9,31,18.89,24.84,23.16,18.29,28.92,12.53ZM2.23,29.41l11-11a6.55,6.55,0,0,1,8.51-.63A44.59,44.59,0,0,0,15,30.35a25.75,25.75,0,0,0-1.15,5.3l-11.39-5a.77.77,0,0,1-.24-1.25Z"/><path class="cls-1" d="M44.07,28.5a10.09,10.09,0,1,0-7.13-3A10.09,10.09,0,0,0,44.07,28.5ZM38.35,12.69a8.09,8.09,0,1,1,0,11.44h0a8.07,8.07,0,0,1,0-11.41Z"/><path class="cls-1" d="M4.44,57.56a1,1,0,0,0,1.16.18,17.92,17.92,0,0,1,2.9-1.15,7.26,7.26,0,0,0,.62,1.35,1,1,0,0,0,.86.49h.07c.31,0,7.51-.58,11.1-4.17a13.62,13.62,0,0,0,2.12-2.73,1,1,0,0,0-.78-1.5A11.54,11.54,0,0,1,15,46.83a11.47,11.47,0,0,1-3.17-7.25,1,1,0,0,0-1.51-.76,13.68,13.68,0,0,0-2.58,2c-3.59,3.59-4.15,10.8-4.17,11.1a1,1,0,0,0,.49.93,7.23,7.23,0,0,0,1.35.62A18.13,18.13,0,0,1,4.25,56.4,1,1,0,0,0,4.44,57.56Zm4.72-15.3a11.73,11.73,0,0,1,.92-.83A12.6,12.6,0,0,0,20.66,51.8a12,12,0,0,1-.92,1c-2.5,2.5-7.42,3.31-9.18,3.52a2.6,2.6,0,0,1-.26-.9,1,1,0,0,0-1-1H9.2A9.8,9.8,0,0,0,7,55a9.69,9.69,0,0,0,.54-2.17,1,1,0,0,0-1-1.14,2.42,2.42,0,0,1-.9-.26c.22-1.76,1-6.68,3.52-9.18Z"/></g></g></g></g></svg>