<svg xmlns="http://www.w3.org/2000/svg" viewBox="0 0 53.42 62.14"><defs><style>.cls-1{fill:none;stroke:#db9500;stroke-miterlimit:10;}.cls-2{fill:#db9500;}</style></defs><title>table2</title><g id="Layer_2" data-name="Layer 2"><g id="Layer_1-2" data-name="Layer 1"><g id="Layer_2-2" data-name="Layer 2"><g id="Layer_1-2-2" data-name="Layer 1-2"><path class="cls-1" d="M51.42,4.56H27.85V1a.5.5,0,0,0-1,0V4.56H2A1.5,1.5,0,0,0,.5,6.06V48A1.5,1.5,0,0,0,2,49.47H14.36l-2.52,9.4a.5.5,0,0,0,.35.61h.13a.5.5,0,0,0,.48-.37l2.54-9.48a.5.5,0,0,0,0-.19h11.5v11.7a.5.5,0,0,0,1,0V49.47H39.45a.5.5,0,0,0,0,.38l2.49,9.29a.5.5,0,0,0,.48.37h.13a.5.5,0,0,0,.35-.61l-2.49-9.29a.48.48,0,0,0-.06-.12H51.42a1.5,1.5,0,0,0,1.5-1.5V6.06A1.5,1.5,0,0,0,51.42,4.56Z"/><path class="cls-2" d="M40.29,17.19H34.85a.5.5,0,0,0,0,1h4.91L27.85,30.11a.3.3,0,0,1-.42,0L23.5,26.18a1.3,1.3,0,0,0-1.84,0h0L12.1,35.74a.5.5,0,0,0,.7.71h0l9.56-9.56a.3.3,0,0,1,.42,0l3.93,3.93a1.3,1.3,0,0,0,1.84,0h0L40.47,18.9v4.91a.5.5,0,1,0,1,0V18.37a1.18,1.18,0,0,0-1.18-1.18Z"/></g></g></g></g></svg>