<svg xmlns="http://www.w3.org/2000/svg" viewBox="0 0 54.42 63.14"><defs><style>.cls-1{fill:none;stroke-width:2px;}.cls-1,.cls-2{stroke:#db9500;stroke-miterlimit:10;}.cls-2{fill:#db9500;}</style></defs><title>table2</title><g id="Layer_2" data-name="Layer 2"><g id="Layer_1-2" data-name="Layer 1"><g id="Layer_2-2" data-name="Layer 2"><g id="Layer_1-2-2" data-name="Layer 1-2"><path class="cls-1" d="M51.92,5.06H28.35V1.5a.5.5,0,0,0-1,0V5.06H2.5A1.5,1.5,0,0,0,1,6.56V48.5A1.5,1.5,0,0,0,2.5,50H14.86l-2.52,9.4a.5.5,0,0,0,.35.61h.13a.5.5,0,0,0,.48-.37l2.54-9.48a.5.5,0,0,0,0-.19h11.5v11.7a.5.5,0,0,0,1,0V50H40a.5.5,0,0,0,0,.38l2.49,9.29a.5.5,0,0,0,.48.37h.13a.5.5,0,0,0,.35-.61l-2.49-9.29a.48.48,0,0,0-.06-.12H51.92a1.5,1.5,0,0,0,1.5-1.5V6.56A1.5,1.5,0,0,0,51.92,5.06Z"/><path class="cls-2" d="M40.79,17.69H35.35a.5.5,0,0,0,0,1h4.91L28.35,30.61a.3.3,0,0,1-.42,0L24,26.68a1.3,1.3,0,0,0-1.84,0h0L12.6,36.24a.5.5,0,0,0,.7.71h0l9.56-9.56a.3.3,0,0,1,.42,0l3.93,3.93a1.3,1.3,0,0,0,1.84,0h0L41,19.4v4.91a.5.5,0,1,0,1,0V18.87a1.18,1.18,0,0,0-1.18-1.18Z"/></g></g></g></g></svg>