<svg xmlns="http://www.w3.org/2000/svg" viewBox="0 0 86.5 70.5"><defs><style>.cls-1{fill:#db9500;}.cls-2{fill:#3a3a3a;}</style></defs><title>wifi</title><g id="Layer_2" data-name="Layer 2"><g id="Layer_1-2" data-name="Layer 1"><path class="cls-1" d="M33.8,61.5a9,9,0,1,0,9-9A9,9,0,0,0,33.8,61.5Zm14,0a5,5,0,1,1-5-5A5,5,0,0,1,47.8,61.5Z"/><path class="cls-2" d="M59.8,45.9a2,2,0,0,0,1.4-.6,1.93,1.93,0,0,0,0-2.8,25.41,25.41,0,0,0-35.9,0,2,2,0,0,0,2.8,2.8,21.43,21.43,0,0,1,30.2,0A2.4,2.4,0,0,0,59.8,45.9Z"/><path class="cls-2" d="M72.2,33.5a2,2,0,0,0,1.4-.6,1.93,1.93,0,0,0,0-2.8,42.91,42.91,0,0,0-60.6,0,2,2,0,0,0,2.8,2.8,38.87,38.87,0,0,1,55,0A2,2,0,0,0,72.2,33.5Z"/><path class="cls-2" d="M.6,17.7a1.93,1.93,0,0,0,0,2.8,1.93,1.93,0,0,0,2.8,0,56.37,56.37,0,0,1,79.7,0,1.93,1.93,0,0,0,2.8,0,1.93,1.93,0,0,0,0-2.8A60.23,60.23,0,0,0,.6,17.7Z"/></g></g></svg>